<svg xmlns="http://www.w3.org/2000/svg" xmlns:xlink="http://www.w3.org/1999/xlink" width="500" zoomAndPan="magnify"  viewBox="0 0 500 500" height="500" preserveAspectRatio="xMidYMid meet" version="1.0"><defs><clipPath id="6573963947"><path d="M 112.5 112.5 L 262.5 112.5 L 262.5 262.5 L 112.5 262.5 Z M 112.5 112.5 " clip-rule="nonzero"/></clipPath></defs><g clip-path="url(#6573963947)"><path fill="#c084fc" d="M 262.429688 184.128906 L 196.445312 184.128906 L 233.058594 148.070312 L 238.777344 142.4375 C 243.632812 147.949219 247.535156 154.152344 250.398438 160.929688 C 250.414062 160.96875 250.429688 161.007812 250.445312 161.042969 L 257.699219 161.042969 C 257.355469 160.125 256.988281 159.214844 256.605469 158.304688 C 252.828125 149.375 247.421875 141.351562 240.535156 134.464844 C 233.648438 127.578125 225.625 122.167969 216.695312 118.394531 C 207.445312 114.484375 197.625 112.5 187.5 112.5 C 177.375 112.5 167.554688 114.484375 158.304688 118.394531 C 149.375 122.171875 141.351562 127.578125 134.464844 134.464844 C 132.289062 136.640625 130.257812 138.933594 128.382812 141.328125 C 126.6875 143.492188 125.117188 145.738281 123.679688 148.066406 C 121.664062 151.324219 119.898438 154.742188 118.390625 158.300781 C 114.917969 166.527344 112.964844 175.195312 112.574219 184.128906 C 112.523438 185.25 112.5 186.375 112.5 187.5 C 112.5 188.625 112.523438 189.75 112.574219 190.871094 L 179.996094 190.871094 L 143.046875 227.265625 L 136.898438 233.316406 C 131.789062 227.6875 127.703125 221.3125 124.710938 214.320312 L 117.441406 214.320312 C 117.746094 215.117188 118.0625 215.90625 118.398438 216.695312 C 122.175781 225.625 127.582031 233.648438 134.46875 240.535156 C 141.355469 247.421875 149.375 252.832031 158.308594 256.609375 C 167.558594 260.519531 177.378906 262.503906 187.503906 262.503906 C 197.628906 262.503906 207.449219 260.519531 216.699219 256.609375 C 225.628906 252.832031 233.648438 247.421875 240.539062 240.535156 C 242.613281 238.457031 244.558594 236.28125 246.355469 234.003906 C 248.070312 231.839844 249.660156 229.59375 251.117188 227.265625 C 253.21875 223.90625 255.050781 220.378906 256.609375 216.699219 C 260.085938 208.480469 262.039062 199.808594 262.429688 190.871094 C 262.480469 189.753906 262.503906 188.628906 262.503906 187.503906 C 262.503906 186.375 262.480469 185.25 262.429688 184.128906 Z M 139.234375 139.234375 C 145.503906 132.964844 152.804688 128.042969 160.933594 124.601562 C 169.347656 121.042969 178.285156 119.238281 187.503906 119.238281 C 196.722656 119.238281 205.660156 121.042969 214.074219 124.601562 C 222.203125 128.042969 229.503906 132.964844 235.773438 139.234375 C 236.457031 139.921875 237.128906 140.621094 237.78125 141.332031 L 137.222656 141.332031 C 137.875 140.617188 138.546875 139.921875 139.234375 139.234375 Z M 119.320312 184.128906 C 119.707031 176.105469 121.480469 168.3125 124.601562 160.929688 C 126.53125 156.371094 128.925781 152.070312 131.765625 148.070312 L 223.453125 148.070312 L 186.839844 184.128906 Z M 235.769531 235.769531 C 229.5 242.039062 222.199219 246.960938 214.070312 250.398438 C 205.65625 253.957031 196.71875 255.761719 187.5 255.761719 C 178.28125 255.761719 169.34375 253.957031 160.929688 250.398438 C 152.800781 246.960938 145.5 242.035156 139.230469 235.769531 C 138.652344 235.191406 138.082031 234.601562 137.527344 234.003906 L 237.472656 234.003906 C 236.917969 234.601562 236.347656 235.191406 235.769531 235.769531 Z M 250.398438 214.070312 C 248.417969 218.757812 245.941406 223.164062 243 227.265625 L 152.648438 227.265625 L 189.601562 190.871094 L 255.679688 190.871094 C 255.292969 198.898438 253.523438 206.6875 250.398438 214.070312 Z M 250.398438 214.070312 " fill-opacity="1" fill-rule="nonzero"/></g></svg>